<?xml version="1.0" encoding="UTF-8"?>
<svg width="184px" height="154px" viewBox="0 0 184 154" version="1.1" xmlns="http://www.w3.org/2000/svg" xmlns:xlink="http://www.w3.org/1999/xlink">
    <!-- Generator: Sketch 45.2 (43514) - http://www.bohemiancoding.com/sketch -->
    <title>pin-code</title>
    <desc>Created with Sketch.</desc>
    <defs></defs>
    <g id="Mobile-App" stroke="none" stroke-width="1" fill="none" fill-rule="evenodd">
        <g id="Signup---Step5" transform="translate(-115.000000, -221.000000)" fill-rule="nonzero">
            <g id="Group" transform="translate(57.000000, 64.000000)">
                <g id="pin-code" transform="translate(58.000000, 157.000000)">
                    <path d="M67.3284983,67.3284983 L113.234293,67.3284983 C114.926686,67.3284983 116.294679,65.9574452 116.294679,64.268112 L116.294679,27.5434766 C116.294679,25.8541433 114.926686,24.4830903 113.234293,24.4830903 L107.11352,24.4830903 L107.11352,16.8321246 C107.11352,7.54997297 99.5604867,0 90.2813954,0 C81.0023042,0 73.4492709,7.54997297 73.4492709,16.8321246 L73.4492709,24.4830903 L67.3284983,24.4830903 C65.6361047,24.4830903 64.268112,25.8541433 64.268112,27.5434766 L64.268112,64.268112 C64.268112,65.9574452 65.6361047,67.3284983 67.3284983,67.3284983 Z M79.5700434,16.8321246 C79.5700434,10.925579 84.3748499,6.12077257 90.2813954,6.12077257 C96.187941,6.12077257 100.992747,10.925579 100.992747,16.8321246 L100.992747,24.4830903 L79.5700434,24.4830903 L79.5700434,16.8321246 Z M70.3888846,30.6038629 L76.5096571,30.6038629 L104.053134,30.6038629 L110.173906,30.6038629 L110.173906,61.2077257 L70.3888846,61.2077257 L70.3888846,30.6038629 Z" id="Shape" fill="#FAFAFA"></path>
                    <path d="M149.958928,85.690816 L33.6642491,85.690816 C15.1030063,85.690816 0,100.793822 0,119.355065 C0,137.916308 15.1030063,153.019314 33.6642491,153.019314 L149.958928,153.019314 C168.520171,153.019314 183.623177,137.916308 183.623177,119.355065 C183.623177,100.793822 168.520171,85.690816 149.958928,85.690816 Z M149.958928,146.898542 L33.6642491,146.898542 C18.475552,146.898542 6.12077257,134.540702 6.12077257,119.355065 C6.12077257,104.169428 18.475552,91.8115886 33.6642491,91.8115886 L149.958928,91.8115886 C165.147625,91.8115886 177.502405,104.169428 177.502405,119.355065 C177.502405,134.540702 165.147625,146.898542 149.958928,146.898542 Z" id="Shape" fill="#FAFAFA"></path>
                    <path d="M47.5981879,110.495247 L39.7850217,114.40336 L39.7850217,104.053134 C39.7850217,102.3638 38.417029,100.992747 36.7246354,100.992747 C35.0322418,100.992747 33.6642491,102.3638 33.6642491,104.053134 L33.6642491,114.40336 L25.851083,110.498307 C24.3423125,109.739331 22.5030204,110.357529 21.7440446,111.8663 C20.9881291,113.378131 21.6002064,115.217423 23.1120372,115.973338 L32.0728483,120.453744 L25.0951675,129.760379 C24.0791193,131.113069 24.3545541,133.031931 25.7072448,134.044919 C26.2581143,134.458071 26.9007955,134.656997 27.5404162,134.656997 C28.473834,134.656997 29.3888895,134.234663 29.9917856,133.432842 L36.7246354,124.453669 L43.4574853,133.432842 C44.057321,134.234663 44.9754369,134.656997 45.9088547,134.656997 C46.5484754,134.656997 47.1911565,134.458071 47.7420261,134.044919 C49.0947168,133.031931 49.3701516,131.113069 48.3541033,129.760379 L41.3733622,120.453744 L50.3341732,115.973338 C51.8460041,115.217423 52.4580813,113.378131 51.7021659,111.8663 C50.9431901,110.354469 49.1100187,109.739331 47.5981879,110.495247 Z" id="Shape" fill="#FF0062"></path>
                    <path d="M84.3228233,110.495247 L76.5096571,114.40336 L76.5096571,104.053134 C76.5096571,102.3638 75.1416645,100.992747 73.4492709,100.992747 C71.7568772,100.992747 70.3888846,102.3638 70.3888846,104.053134 L70.3888846,114.40336 L62.5757184,110.498307 C61.0669479,109.739331 59.2276558,110.357529 58.46868,111.8663 C57.7127646,113.378131 58.3248418,115.217423 59.8366727,115.973338 L68.7974837,120.453744 L61.819803,129.760379 C60.8037547,131.113069 61.0791895,133.031931 62.4318802,134.044919 C62.9827498,134.458071 63.6254309,134.656997 64.2650516,134.656997 C65.1984694,134.656997 66.1135249,134.234663 66.716421,133.432842 L73.4492709,124.453669 L80.1821207,133.432842 C80.7819564,134.234663 81.7000723,134.656997 82.6334901,134.656997 C83.2731108,134.656997 83.915792,134.458071 84.4666615,134.044919 C85.8193522,133.031931 86.094787,131.113069 85.0787387,129.760379 L78.0979976,120.453744 L87.0588087,115.973338 C88.5706395,115.217423 89.1827168,113.378131 88.4268013,111.8663 C87.6708859,110.354469 85.8346542,109.739331 84.3228233,110.495247 Z" id="Shape" fill="#FF0062"></path>
                    <path d="M121.047459,110.495247 L113.234293,114.40336 L113.234293,104.053134 C113.234293,102.3638 111.8663,100.992747 110.173906,100.992747 C108.481513,100.992747 107.11352,102.3638 107.11352,104.053134 L107.11352,114.40336 L99.3003538,110.498307 C97.7854626,109.739331 95.9522912,110.357529 95.1933154,111.8663 C94.4374,113.378131 95.0494773,115.217423 96.5613081,115.973338 L105.522119,120.453744 L98.5444384,129.760379 C97.5283902,131.113069 97.8038249,133.031931 99.1565157,134.044919 C99.7073852,134.458071 100.350066,134.656997 100.989687,134.656997 C101.923105,134.656997 102.83816,134.234663 103.441056,133.432842 L110.173906,124.453669 L116.906756,133.432842 C117.506592,134.234663 118.424708,134.656997 119.358126,134.656997 C119.997746,134.656997 120.640427,134.458071 121.191297,134.044919 C122.543988,133.031931 122.819422,131.113069 121.803374,129.760379 L114.822633,120.453744 L123.783444,115.973338 C125.295275,115.217423 125.907352,113.378131 125.151437,111.8663 C124.392461,110.354469 122.55929,109.739331 121.047459,110.495247 Z" id="Shape" fill="#FF0062"></path>
                    <path d="M157.772094,110.495247 L149.958928,114.40336 L149.958928,104.053134 C149.958928,102.3638 148.590935,100.992747 146.898542,100.992747 C145.206148,100.992747 143.838155,102.3638 143.838155,104.053134 L143.838155,114.40336 L136.024989,110.498307 C134.510098,109.739331 132.676927,110.357529 131.917951,111.8663 C131.162035,113.378131 131.774113,115.217423 133.285944,115.973338 L142.246755,120.453744 L135.269074,129.760379 C134.253026,131.113069 134.52846,133.031931 135.881151,134.044919 C136.432021,134.458071 137.074702,134.656997 137.714322,134.656997 C138.64774,134.656997 139.562796,134.234663 140.165692,133.432842 L146.898542,124.453669 L153.631392,133.432842 C154.231227,134.234663 155.149343,134.656997 156.082761,134.656997 C156.722382,134.656997 157.365063,134.458071 157.915932,134.044919 C159.268623,133.031931 159.544058,131.113069 158.52801,129.760379 L151.547268,120.453744 L160.50808,115.973338 C162.01991,115.217423 162.631988,113.378131 161.876072,111.8663 C161.117096,110.354469 159.283925,109.739331 157.772094,110.495247 Z" id="Shape" fill="#FF0062"></path>
                </g>
            </g>
        </g>
    </g>
</svg>