<svg width="228" height="236" viewBox="0 0 228 236" fill="none" xmlns="http://www.w3.org/2000/svg">
<path d="M108 216.32L101.52 215.76L97.9999 215.44L93.9999 214.64C90.5303 214.084 87.1073 213.269 83.7599 212.2C74.6889 209.613 66.0589 205.676 58.1599 200.52C35.7718 186.243 20.2376 163.39 15.1999 137.32C12.2845 122.038 13.2192 106.27 17.9199 91.4399C22.8654 75.8362 31.8653 61.8255 43.9999 50.8399C50.0647 45.3787 56.7825 40.6897 63.9999 36.8799C65.7999 35.9199 67.7599 35.1999 69.6399 34.3599C71.5562 33.4059 73.55 32.6164 75.5999 31.9999L81.4799 30.1199L87.5199 28.8399C89.5077 28.3994 91.5274 28.1185 93.5599 27.9999C95.5999 27.9999 97.5599 27.4799 99.6399 27.3999C103.642 27.2363 107.65 27.3298 111.64 27.6799C119.63 28.3217 127.492 30.0718 135 32.8799C142.378 35.686 149.368 39.4229 155.8 43.9999C157.36 45.1199 158.8 46.4399 160.28 47.5999C161.794 48.7491 163.212 50.0199 164.52 51.3999L168.52 55.3999L172.12 59.7199L173.88 61.8399L175.44 64.1199L178.52 68.6399L181.12 73.3999L182.4 75.7599L183.44 78.1999L185.52 83.0399L187.16 87.9999C188.185 91.2374 189 94.5375 189.6 97.8799C191.794 110.296 191.11 123.05 187.6 135.16C184.67 145.342 179.778 154.854 173.2 163.16C168.137 169.726 162.029 175.415 155.12 180C148.399 184.536 141.038 188.041 133.28 190.4C131.64 191.12 130 191.6 128.44 192.32C126.901 193.021 125.417 193.837 124 194.76C121.061 196.303 118.365 198.271 116 200.6C111.219 204.585 108.319 210.384 108 216.6C108 222.6 112 227.88 119.08 231.44C123.209 233.023 127.579 233.888 132 234C134.517 233.999 137.031 233.812 139.52 233.44C142.253 233.142 144.94 232.511 147.52 231.56C159.262 227.331 170.234 221.211 180 213.44C189.858 205.84 198.422 196.695 205.36 186.36C214.127 173.481 220.283 159.008 223.48 143.76C227.182 126.217 226.813 108.058 222.4 90.6799C221.224 86.0708 219.754 81.5416 218 77.1199L215.28 70.4399L211.76 63.9999L210.04 60.7599L208.04 57.6799L204.04 51.5199L199.44 45.6799L197.12 42.7599L194.48 39.9999L189.24 34.5999L183.48 29.6799C181.576 28.0079 179.558 26.4708 177.44 25.0799C175.36 23.6399 173.44 22.1199 171.16 20.7999C162.4 15.4676 152.989 11.2865 143.16 8.35991C133.303 5.51485 123.099 4.0476 112.84 3.99991C107.721 3.9308 102.604 4.19804 97.5199 4.79991C94.9999 5.07991 92.4799 5.67991 89.9599 6.11991C87.4247 6.56628 84.9249 7.19457 82.4799 7.99991L75.1599 10.1599L67.9999 12.7999C65.6317 13.6976 63.3323 14.7671 61.1199 15.9999C58.9199 17.1999 56.5999 18.2799 54.4799 19.5999C45.9897 24.7919 38.1939 31.042 31.2799 38.1999C18.1399 52.1431 8.94548 69.3308 4.63992 87.9999C-3.06193 120.395 5.03983 154.523 26.4799 180C34.731 189.777 44.7445 197.918 55.9999 204C64.4989 208.689 73.6546 212.073 83.1599 214.04C86.6199 214.861 90.1363 215.423 93.6799 215.72L97.9599 216.2H101.52L108 216.32Z" fill="#FEDB00"/>
<path d="M94.1836 214.284L88.0236 213.124C85.5543 212.694 83.1208 212.079 80.7436 211.284L76.1836 209.924C74.5836 209.364 72.9436 208.644 71.1836 207.924C62.7168 204.548 54.7817 199.968 47.6236 194.324C38.3492 187.163 30.4483 178.381 24.3036 168.404C9.06846 143.525 5.89295 113.093 15.6636 85.6043C17.0144 81.9371 18.5908 78.3569 20.3836 74.8843L23.1436 69.6843L26.4236 64.7243L28.0636 62.2443L29.9436 59.9243L33.7036 55.2843C36.4212 52.3346 39.306 49.5433 42.3436 46.9243C51.4268 38.9005 62.0788 32.8526 73.6236 29.1643C75.5436 28.6043 77.4236 27.8043 79.3836 27.4043L85.3436 26.1243C101.015 23.2307 117.169 24.4574 132.224 29.6843C146.52 34.8574 159.247 43.6176 169.184 55.1243L172.704 59.1243L175.744 63.5643C177.716 66.4989 179.519 69.5439 181.144 72.6843C182.584 75.8843 184.064 79.0043 185.144 82.2043C186.283 85.3678 187.218 88.6011 187.944 91.8843C190.72 104.036 190.829 116.646 188.264 128.844C186.126 139.106 182.053 148.866 176.264 157.604C171.76 164.475 166.214 170.602 159.824 175.764C153.572 180.906 146.606 185.11 139.144 188.244C137.584 189.084 136.024 189.804 134.504 190.564C133.102 191.382 131.765 192.304 130.504 193.324C127.821 194.99 125.395 197.038 123.304 199.404C119.08 203.079 116.718 208.448 116.864 214.044C117.424 219.284 121.584 223.524 128.864 226.044C132.881 227.011 137.021 227.362 141.144 227.084C143.489 226.771 145.813 226.317 148.104 225.724C150.584 225.159 152.987 224.299 155.264 223.164C158.623 221.582 161.895 219.82 165.064 217.884C171.973 213.708 178.422 208.814 184.304 203.284C192.942 195.316 200.295 186.06 206.104 175.844C222.118 148.093 225.94 114.953 216.664 84.2843C215.384 79.9646 213.835 75.7296 212.024 71.6043C210.224 67.6043 208.024 63.6043 205.784 59.3643C203.344 55.3713 200.673 51.5247 197.784 47.8443L193.064 42.6043L188.144 37.4843C160.391 9.01481 119.519 -2.41638 81.0236 7.52432L74.0236 9.56432C71.7036 10.2443 69.5036 11.2843 67.2236 12.1243C62.759 13.9188 58.4164 16.0032 54.2236 18.3643C46 23.1084 38.4296 28.9038 31.7036 35.6043C6.24395 60.5454 -4.9172 96.6461 2.02364 131.604C4.8246 146.109 10.7034 159.845 19.2636 171.884C26.3625 181.836 35.1971 190.427 45.3436 197.244C53.0569 202.52 61.4903 206.655 70.3836 209.524C72.2236 210.124 73.9436 210.724 75.5836 211.164L80.3036 212.204C82.7461 212.843 85.2331 213.298 87.7436 213.564L94.1836 214.284Z" fill="#FEDB00"/>
<path d="M79.0803 212C78.5857 211.887 78.1034 211.727 77.6403 211.52L73.6403 209.88C68.3941 207.84 63.3463 205.323 58.5603 202.36C51.1509 197.78 44.3388 192.298 38.2803 186.04C30.5994 177.796 24.3409 168.334 19.7603 158.04C14.3637 146.069 11.4516 133.128 11.2003 120C10.9595 105.403 14.0512 90.9425 20.2403 77.7199C26.8892 63.7753 36.7777 51.6238 49.0803 42.2799C61.6382 32.7678 76.4067 26.6016 92.0003 24.3599C107.457 22.1082 123.232 23.8289 137.84 29.3599C151.881 34.6191 164.381 43.3101 174.2 54.6399C183.398 65.0743 190.004 77.5319 193.48 90.9999C196.546 103.024 197.104 115.551 195.12 127.8C193.441 138.169 189.919 148.153 184.72 157.28C180.503 164.37 175.395 170.889 169.52 176.68C163.63 182.318 156.995 187.122 149.8 190.96C146.795 192.56 143.92 194.392 141.2 196.44C138.676 198.098 136.354 200.044 134.28 202.24C130.509 205.039 128.403 209.551 128.68 214.24C129.48 218.24 133.6 220.84 140.24 221.8C143.976 222.059 147.729 221.817 151.4 221.08C155.803 219.942 160.039 218.234 164 216C173.378 210.615 181.91 203.876 189.32 196C196.681 188.089 202.962 179.239 208 169.68C221.296 143.363 223.808 112.899 215 84.7599C209.807 68.3967 200.831 53.4872 188.8 41.2399C163.191 14.7043 125.861 2.98429 89.6803 10.1199C71.9901 13.5728 55.4708 21.4745 41.6803 33.0799C28.6624 44.1713 18.486 58.2153 12.0003 74.0399C6.01965 88.6689 3.46119 104.471 4.52027 120.24C5.45828 134.101 9.20052 147.628 15.5203 160C20.8249 170.419 27.8274 179.881 36.2403 188C42.7551 194.048 49.9975 199.261 57.8003 203.52C62.7827 206.245 68.0045 208.508 73.4003 210.28L77.6403 211.72C78.1107 211.857 78.5927 211.951 79.0803 212Z" fill="#FEDB00"/>
<path d="M33.4797 124.68C31.1296 122.193 29.8884 118.859 30.0397 115.44C29.9466 112.325 30.6197 109.234 31.9997 106.44C33.1957 104.03 35.0024 101.975 37.2397 100.48C39.2437 99.1507 41.5949 98.4411 43.9997 98.44C46.0086 98.3168 47.9741 99.0593 49.3997 100.48C50.7089 101.919 51.3987 103.816 51.3197 105.76C51.3829 107.335 50.9793 108.894 50.1597 110.24C49.5461 111.37 48.3654 112.075 47.0797 112.08C46.3949 112.115 45.7183 111.918 45.1597 111.52C44.6703 111.138 44.4009 110.539 44.4397 109.92C44.4046 109.588 44.4046 109.252 44.4397 108.92V108.08C44.64 107.514 44.7481 106.92 44.7597 106.32C44.7962 105.858 44.653 105.399 44.3597 105.04C44.0532 104.735 43.6314 104.575 43.1997 104.6C42.1545 104.63 41.169 105.094 40.4797 105.88C39.5467 106.887 38.8498 108.09 38.4397 109.4C37.9171 110.973 37.6602 112.622 37.6797 114.28C37.6797 119.16 39.8131 121.6 44.0797 121.6C46.0653 121.53 47.9971 120.936 49.6797 119.88C52.0823 118.541 54.2233 116.78 55.9997 114.68C56.4106 114.142 57.0429 113.818 57.7197 113.8C58.252 113.805 58.7408 114.095 58.9997 114.56C59.3452 115.197 59.5111 115.916 59.4797 116.64C59.5611 118.073 59.1363 119.489 58.2797 120.64C56.3585 123.029 53.9253 124.957 51.1597 126.28C48.6787 127.543 45.9434 128.227 43.1597 128.28C39.5722 128.483 36.063 127.178 33.4797 124.68Z" fill="#FAFAFA"/>
<path fill-rule="evenodd" clip-rule="evenodd" d="M57.1602 89.5601C57.0859 90.8433 57.5664 92.0957 58.4795 93L58.5996 93.04C59.6904 93.8955 61.0566 94.3223 62.4395 94.2402C64.0283 94.3164 65.5859 93.7876 66.7998 92.7603C67.9053 91.731 68.5049 90.2695 68.4395 88.7603C68.4912 87.5146 67.958 86.3169 67 85.52C65.8975 84.7246 64.5566 84.3291 63.2002 84.4004C61.627 84.3491 60.0908 84.876 58.8799 85.8804C57.7764 86.7812 57.1436 88.1357 57.1602 89.5601ZM54.1201 117.56C53.9941 120.26 54.6465 122.94 56 125.28C57.3809 127.225 59.709 128.266 62.0801 128C65.7061 128.133 69.5859 125.64 73.7197 120.52C74.6025 119.382 75.0303 117.956 74.9199 116.52C74.9512 115.796 74.7852 115.077 74.4395 114.44C74.1807 113.975 73.6924 113.685 73.1592 113.68C72.4824 113.698 71.8506 114.022 71.4395 114.56C70.0205 116.316 68.498 117.986 66.8799 119.56C66.1504 120.411 65.1455 120.978 64.04 121.16C63.3145 121.214 62.6318 120.816 62.3193 120.16C61.9287 119.238 61.751 118.24 61.7998 117.24C62.0322 114.068 62.541 110.923 63.3193 107.84C63.9023 105.434 64.3027 102.987 64.5195 100.52C64.5195 99.0801 63.4395 98.3599 61.2793 98.3599C60.21 98.2725 59.1416 98.5396 58.2393 99.1201C57.4609 99.8779 56.9307 100.854 56.7197 101.92C55.9199 104.651 55.292 107.43 54.8398 110.24C54.4092 112.658 54.1689 115.105 54.1201 117.56Z" fill="#FAFAFA"/>
<path d="M70.9602 125.68C70.1781 123.089 69.84 120.384 69.9602 117.68C69.9277 112.392 70.7102 107.13 72.2802 102.08C72.5703 100.992 73.2364 100.043 74.1602 99.3998C75.2665 98.773 76.5311 98.4811 77.8002 98.5598C78.4044 98.5167 79.0098 98.6268 79.5602 98.8798C79.8784 99.1607 80.0421 99.5775 80.0002 99.9998C79.8289 101.547 79.5073 103.075 79.0402 104.56C78.6135 106.24 78.2802 107.72 78.0402 109C77.7448 110.547 77.5311 112.11 77.4002 113.68C78.5412 110.53 80.1164 107.554 82.0802 104.84C83.4811 102.903 85.2477 101.258 87.2802 99.9998C88.6815 99.0584 90.3139 98.5189 92.0002 98.4398C93.0922 98.3252 94.1775 98.7097 94.9539 99.4861C95.7303 100.262 96.1148 101.348 96.0002 102.44C95.8991 103.784 95.7121 105.12 95.4402 106.44C95.1936 107.48 95.0199 108.536 94.9202 109.6C94.9202 111.066 95.4535 111.8 96.5202 111.8C98.3294 111.45 99.9499 110.455 101.08 109C101.512 108.493 102.135 108.189 102.8 108.16C103.324 108.156 103.811 108.43 104.08 108.88C104.423 109.46 104.589 110.127 104.56 110.8C104.64 112.148 104.179 113.472 103.28 114.48C102.11 115.713 100.761 116.765 99.2802 117.6C97.737 118.45 96.0019 118.89 94.2402 118.88C92.3851 119.008 90.5558 118.389 89.1602 117.16C87.974 115.931 87.3511 114.265 87.4402 112.56C87.3789 111.935 87.3789 111.305 87.4402 110.68C87.4402 109.826 87.4402 109.253 87.4402 108.96C87.4402 108.666 87.2402 108.346 86.8402 108C86.2002 108 85.3735 108.706 84.3602 110.12C83.1355 111.871 82.1029 113.748 81.2802 115.72C80.2464 118.085 79.4167 120.534 78.8002 123.04C78.5676 124.475 78.0213 125.84 77.2002 127.04C76.4398 127.793 75.3864 128.173 74.3202 128.08C72.7912 128.116 71.4221 127.138 70.9602 125.68Z" fill="#FAFAFA"/>
<path d="M101.04 124.68C98.6901 122.193 97.4489 118.859 97.6003 115.44C97.5385 112.332 98.2389 109.255 99.6403 106.48C100.836 104.07 102.643 102.015 104.88 100.52C106.88 99.1765 109.231 98.453 111.64 98.44C113.649 98.3168 115.615 99.0593 117.04 100.48C118.349 101.919 119.039 103.816 118.96 105.76C119.023 107.335 118.62 108.894 117.8 110.24C117.187 111.37 116.006 112.075 114.72 112.08C114.035 112.115 113.359 111.918 112.8 111.52C112.311 111.138 112.041 110.539 112.08 109.92C112.045 109.588 112.045 109.252 112.08 108.92V108.08C112.281 107.514 112.389 106.92 112.4 106.32C112.437 105.858 112.294 105.399 112 105.04C111.694 104.735 111.272 104.575 110.84 104.6C109.795 104.63 108.81 105.094 108.12 105.88C107.187 106.887 106.49 108.09 106.08 109.4C105.558 110.973 105.301 112.622 105.32 114.28C105.32 119.16 107.454 121.6 111.72 121.6C113.79 121.616 115.824 121.063 117.6 120C119.86 118.623 121.863 116.863 123.52 114.8C123.931 114.262 124.563 113.938 125.24 113.92C125.773 113.925 126.261 114.215 126.52 114.68C126.866 115.317 127.032 116.036 127 116.76C127.082 118.193 126.657 119.609 125.8 120.76C123.879 123.149 121.446 125.077 118.68 126.4C116.199 127.663 113.464 128.347 110.68 128.4C107.089 128.56 103.594 127.211 101.04 124.68Z" fill="#FAFAFA"/>
<path fill-rule="evenodd" clip-rule="evenodd" d="M147.6 116.64C147.631 115.916 147.465 115.197 147.12 114.56C146.841 114.056 146.295 113.759 145.72 113.8C145.043 113.818 144.41 114.142 144 114.68C142.568 116.489 140.961 118.15 139.2 119.64C137.889 120.631 136.283 121.152 134.64 121.12C133.639 121.148 132.675 120.74 132 120C131.238 118.981 130.756 117.782 130.6 116.52C135.13 110.439 138.93 103.848 141.92 96.8799C144.381 91.3843 145.739 85.459 145.92 79.4399C146.076 76.667 145.482 73.9033 144.2 71.4399C143.253 69.6982 141.422 68.6211 139.439 68.6396C135.946 68.6396 132.866 71 130.2 75.7197C127.399 81.0317 125.417 86.7358 124.319 92.6396C123.078 98.4136 122.408 104.295 122.319 110.2C122.146 114.712 123.064 119.2 125 123.28C126.488 126.459 129.731 128.443 133.239 128.32C135.816 128.353 138.342 127.599 140.479 126.16C142.717 124.625 144.712 122.764 146.399 120.64C147.282 119.502 147.71 118.076 147.6 116.64ZM131.521 92.9995C132.261 88.5889 133.344 84.2422 134.76 79.9995C135.906 76.4795 137.066 74.7197 138.24 74.7197C139.413 74.7197 140 76.3198 140 79.5195C139.858 84.1938 138.911 88.8081 137.2 93.1597C135.321 98.3359 132.923 103.308 130.04 108C130.132 102.968 130.627 97.9521 131.521 92.9995Z" fill="#FAFAFA"/>
<path fill-rule="evenodd" clip-rule="evenodd" d="M166.88 118.52C166.911 117.796 166.745 117.077 166.4 116.44C166.179 116.056 165.797 115.792 165.36 115.72C164.666 115.745 164.025 116.102 163.64 116.68C162.496 118.19 161.15 119.536 159.64 120.68C158.377 121.524 156.878 121.944 155.36 121.88C153.221 122.027 151.202 120.876 150.24 118.96C154.16 118.269 157.83 116.558 160.88 114C162.904 112.042 164.033 109.336 164 106.52C164.131 104.34 163.365 102.201 161.88 100.6C160.295 99.1104 158.172 98.3306 156 98.4399C153.304 98.4277 150.671 99.2676 148.48 100.84C146.29 102.343 144.537 104.399 143.4 106.8C142.188 109.292 141.559 112.028 141.561 114.8C141.367 118.391 142.571 121.917 144.92 124.64C147.367 127.174 150.805 128.505 154.32 128.28C156.69 128.339 159.038 127.817 161.16 126.76C163.049 125.773 164.647 124.312 165.8 122.52C166.556 121.326 166.932 119.932 166.88 118.52ZM149.2 113.88C149.131 111.588 149.684 109.321 150.8 107.32C151.512 105.747 153.037 104.699 154.76 104.6C155.437 104.565 156.094 104.829 156.561 105.32C157.023 105.85 157.267 106.536 157.24 107.24C157.166 108.832 156.371 110.304 155.08 111.24C153.346 112.554 151.335 113.457 149.2 113.88Z" fill="#FAFAFA"/>
</svg>
