<?xml version="1.0" encoding="UTF-8"?>
<svg width="32px" height="32px" viewBox="0 0 32 32" version="1.1" xmlns="http://www.w3.org/2000/svg" xmlns:xlink="http://www.w3.org/1999/xlink">
    <!-- Generator: Sketch 46.2 (44496) - http://www.bohemiancoding.com/sketch -->
    <title>002-close</title>
    <desc>Created with Sketch.</desc>
    <defs></defs>
    <g id="Mobile-App" stroke="none" stroke-width="1" fill="none" fill-rule="evenodd">
        <g id="FW:-Send-Money" transform="translate(-356.000000, -58.000000)" fill-rule="nonzero" fill="#000000">
            <g id="002-close" transform="translate(356.000000, 58.000000)">
                <path d="M15.9914305,0 C7.17374915,0 0,7.17374915 0,15.9914305 C0,24.8091119 7.17374915,31.982861 15.9914305,31.982861 C20.1445966,31.982861 24.0800542,30.3981559 27.0730847,27.5206508 C27.3322305,27.2715932 27.3403661,26.8594983 27.0912,26.600461 C26.8422508,26.3414237 26.4302644,26.3331797 26.1710102,26.5823458 C23.421722,29.2255458 19.8065898,30.6811661 15.991539,30.6811661 C7.89152542,30.6812746 1.30169492,24.0914441 1.30169492,15.9914305 C1.30169492,7.89141695 7.89152542,1.30169492 15.9914305,1.30169492 C24.0913356,1.30169492 30.6811661,7.89152542 30.6811661,15.9914305 C30.6811661,17.8183593 30.3501017,19.6007051 29.6971932,21.2887864 C29.5675661,21.6240814 29.7341831,22.000922 30.069478,22.1306576 C30.4048814,22.2600678 30.7816136,22.0936678 30.9113492,21.7583729 C31.6224,19.9198373 31.9829695,17.9795525 31.9829695,15.991322 C31.9829695,7.17374915 24.8092203,0 15.9914305,0 Z" id="Shape"></path>
                <path d="M18.1824,17.3704678 C17.9253153,17.1189153 17.5133288,17.1234712 17.2619932,17.3802305 C17.0105492,17.6370983 17.0149966,18.0491932 17.2717559,18.3006373 L22.395661,23.3160678 C22.5223593,23.4400542 22.6866983,23.5017763 22.8509288,23.5017763 C23.0198237,23.5017763 23.1886102,23.4363661 23.3160678,23.3061966 C23.5675119,23.0493288 23.5630644,22.6372339 23.3063051,22.3857898 L18.1824,17.3704678 Z" id="Shape"></path>
                <path d="M13.5786305,14.4990373 C13.7056542,14.626061 13.8722712,14.6896271 14.0388881,14.6896271 C14.2055051,14.6896271 14.3720136,14.626061 14.4991458,14.4990373 C14.7533017,14.2448814 14.7533017,13.8327864 14.4991458,13.5786305 L9.59218983,8.67167458 C9.3380339,8.41751864 8.92583051,8.41751864 8.67178305,8.67167458 C8.41762712,8.92583051 8.41762712,9.33792542 8.67178305,9.59208136 L13.5786305,14.4990373 Z" id="Shape"></path>
                <path d="M23.3111864,8.67167458 C23.0570305,8.41751864 22.6448271,8.41751864 22.3907797,8.67167458 L8.67167458,22.3907797 C8.41751864,22.6449356 8.41751864,23.0570305 8.67167458,23.3111864 C8.79869831,23.4382102 8.96531525,23.5017763 9.1319322,23.5017763 C9.29854915,23.5017763 9.46505763,23.4382102 9.59218983,23.3111864 L23.3111864,9.59218983 C23.5653424,9.33792542 23.5653424,8.92593898 23.3111864,8.67167458 Z" id="Shape"></path>
            </g>
        </g>
    </g>
</svg>