<svg width="244" height="40" viewBox="0 0 244 40" version="1.1" xmlns="http://www.w3.org/2000/svg" xmlns:xlink="http://www.w3.org/1999/xlink">
<title> ConnectBadgeBtn</title>
<desc>Created using Figma</desc>
<g id="Canvas" transform="translate(-12493 1)">
<g id="Buttons / ConnectBadgeBtn">
<g id="Rectangle 2" filter="url(#filter0_d)">
<use xlink:href="#path0_fill" transform="translate(12495 0)" fill="url(#paint0_linear)"/>
</g>
<g id="Connect Logo">
<g id="Fill 1">
<use xlink:href="#path1_fill" transform="translate(12618.4 13.325)" fill="#FFFFFF"/>
</g>
<g id="Group 5">
<mask id="mask0_outline" mask-type="alpha">
<g id="Clip 4">
<use xlink:href="#path2_fill" transform="translate(12588 13.0323)" fill="#FFFFFF"/>
</g>
</mask>
<g id="Fill 3" mask="url(#mask0_outline)">
<use xlink:href="#path3_fill" transform="translate(12588 13.0323)" fill="#FFFFFF"/>
</g>
</g>
<g id="Fill 6">
<use xlink:href="#path4_fill" transform="translate(12596.3 13.0445)" fill="#FFFFFF"/>
</g>
<g id="Fill 8">
<use xlink:href="#path5_fill" transform="translate(12606.7 13.2397)" fill="#FFFFFF"/>
</g>
<g id="Group 12">
<mask id="mask1_outline" mask-type="alpha">
<g id="Clip 11">
<use xlink:href="#path6_fill" transform="translate(12609.6 15.7798)" fill="#FFFFFF"/>
</g>
</mask>
<g id="Fill 10" mask="url(#mask1_outline)">
<use xlink:href="#path7_fill" transform="translate(12609.6 15.7798)" fill="#FEDB00"/>
</g>
</g>
<g id="Fill 13">
<use xlink:href="#path8_fill" transform="translate(12625.8 13.0323)" fill="#FFFFFF"/>
</g>
<g id="Fill 15">
<use xlink:href="#path9_fill" transform="translate(12635.1 13.325)" fill="#FFFFFF"/>
</g>
</g>
<g id="TM">
<use xlink:href="#path10_fill" transform="translate(12642 9)" fill="#FFFFFF"/>
</g>
</g>
</g>
<defs>
<filter id="filter0_d" filterUnits="userSpaceOnUse" x="12493" y="-1" width="244" height="40" color-interpolation-filters="sRGB">
<feFlood flood-opacity="0" result="BackgroundImageFix"/>
<feColorMatrix in="SourceAlpha" type="matrix" values="0 0 0 0 0 0 0 0 0 0 0 0 0 0 0 0 0 0 255 0"/>
<feOffset dx="0" dy="1"/>
<feGaussianBlur stdDeviation="1"/>
<feColorMatrix type="matrix" values="0 0 0 0 0 0 0 0 0 0 0 0 0 0 0 0 0 0 1 0"/>
<feBlend mode="normal" in2="BackgroundImageFix" result="effect1_dropShadow"/>
<feBlend mode="normal" in="SourceGraphic" in2="effect1_dropShadow" result="shape"/>
</filter>
<linearGradient id="paint0_linear" x1="0" y1="0" x2="1" y2="0" gradientUnits="userSpaceOnUse" gradientTransform="matrix(0 36 -240 0 120 0)">
<stop offset="0" stop-color="#51009D"/>
<stop offset="1" stop-color="#1D0337"/>
</linearGradient>
<path id="path0_fill" fill-rule="evenodd" d="M 0 18C 0 8.05887 8.05888 0 18 0L 222 0C 231.941 0 240 8.05887 240 18L 240 18C 240 27.9411 231.941 36 222 36L 18 36C 8.05887 36 0 27.9411 0 18L 0 18Z"/>
<path id="path1_fill" fill-rule="evenodd" d="M 6.5549 0.810807L 6.5549 0.883906C 6.5549 1.33171 6.16768 1.69471 5.69001 1.69471L 2.02882 1.69471L 2.02882 3.45048L 5.23474 3.45048C 5.71241 3.45048 6.09963 3.81348 6.09963 4.26128C 6.09963 4.70911 5.71241 5.07212 5.23474 5.07212L 2.02882 5.07212L 2.02882 6.84009L 5.83308 6.84009C 6.31075 6.84009 6.69797 7.20313 6.69797 7.65093L 6.69797 7.71179C 6.69797 8.15959 6.31075 8.5226 5.83308 8.5226L 1.80637 8.5226C 0.808724 8.5226 0 7.76444 0 6.82918L 0 1.69339C 0 0.758155 0.808724 0 1.80637 0L 5.69001 0C 6.16768 0 6.5549 0.363007 6.5549 0.810807"/>
<path id="path2_fill" fill-rule="evenodd" d="M 3.99951e-17 8.81528L 3.99951e-17 0L 8.17531 0L 8.17531 8.81528L 3.99951e-17 8.81528Z"/>
<path id="path3_fill" fill-rule="evenodd" d="M 4.72107 7.03523C 5.43325 7.03523 6.05263 6.84655 6.57906 6.46914C 6.95112 6.20239 7.47086 6.21977 7.79709 6.53478L 7.83751 6.5738C 8.20588 6.92951 8.17104 7.50638 7.76112 7.81961C 6.89254 8.48341 5.91178 8.81528 4.81861 8.81528C 3.41834 8.81528 2.26502 8.40069 1.3592 7.57166C 0.453032 6.74251 0 5.69603 0 4.43209C 0 3.16819 0.46168 2.1136 1.38514 1.26804C 2.30857 0.42283 3.43774 0 4.77313 0C 5.94933 0 6.97444 0.331255 7.84874 0.993699C 8.24416 1.2933 8.28444 1.84647 7.94814 2.20395L 7.89195 2.26371C 7.58001 2.59532 7.04091 2.66092 6.66895 2.38907C 6.14697 2.00752 5.54544 1.81675 4.86413 1.81675C 4.1012 1.81675 3.44849 2.05042 2.90677 2.51776C 2.36488 2.98527 2.09391 3.61518 2.09391 4.40761C 2.09391 5.20007 2.34954 5.83628 2.86125 6.31584C 3.37283 6.79542 3.99287 7.03523 4.72107 7.03523"/>
<path id="path4_fill" fill-rule="evenodd" d="M 7.47847 4.40764C 7.47847 3.64777 7.21842 2.99951 6.69806 2.46304C 6.17784 1.92657 5.53837 1.65818 4.77988 1.65818C 4.02098 1.65818 3.38171 1.92657 2.86149 2.46304C 2.34127 2.99951 2.08105 3.64777 2.08105 4.40764C 2.08105 5.16786 2.34127 5.81396 2.86149 6.34633C 3.38171 6.87879 4.02098 7.14486 4.77988 7.14486C 5.53837 7.14486 6.17784 6.87879 6.69806 6.34633C 7.21842 5.81396 7.47847 5.16786 7.47847 4.40764L 7.47847 4.40764ZM 8.16777 7.54111C 7.24854 8.38237 6.1171 8.80307 4.77327 8.80307C 3.42906 8.80307 2.29765 8.38237 1.37877 7.54111C 0.459544 6.69987 0 5.65339 0 4.40154C 0 3.15 0.459544 2.10336 1.37877 1.26197C 2.29765 0.420698 3.42906 0 4.77327 0C 6.1171 0 7.24854 0.420698 8.16777 1.26197C 9.08665 2.10336 9.54637 3.15 9.54637 4.40154C 9.54637 5.65339 9.08665 6.69987 8.16777 7.54111L 8.16777 7.54111Z"/>
<path id="path5_fill" fill-rule="evenodd" d="M 2.029 3.9016L 2.029 7.65694C 2.029 8.18214 1.57483 8.60794 1.0146 8.60794L 1.01443 8.60794C 0.454169 8.60794 0 8.18214 0 7.65694L 0 3.84058C 0 2.61318 0.366236 1.66609 1.09902 0.999837C 1.8316 0.333225 2.76584 0 3.90183 0C 5.03752 0 5.96963 0.331061 6.698 0.993732C 7.42637 1.65601 7.79047 2.60491 7.79047 3.84058L 7.79047 7.65694C 7.79047 8.18214 7.3363 8.60794 6.77608 8.60794C 6.21582 8.60794 5.76165 8.18214 5.76165 7.65694L 5.76165 3.9016C 5.76165 3.21877 5.5946 2.68017 5.26086 2.28609C 4.92708 1.89169 4.47412 1.69471 3.90183 1.69471C 3.32962 1.69471 2.87431 1.89169 2.53616 2.28609C 2.19797 2.68017 2.029 3.21877 2.029 3.9016"/>
<path id="path6_fill" fill-rule="evenodd" d="M 7.79047 8.60793L 0 8.60793L 3.91723e-15 0L 7.79047 0L 7.79047 8.60793L 7.79047 8.60793Z"/>
<path id="path7_fill" fill-rule="evenodd" d="M 5.76148 4.7063L 5.76148 0.950964C 5.76148 0.42577 6.21565 0 6.77587 0L 6.77604 0C 7.3363 0 7.79047 0.42577 7.79047 0.950964L 7.79047 4.76735C 7.79047 5.99472 7.42424 6.94181 6.69145 7.6081C 5.95888 8.27471 5.02463 8.60794 3.88864 8.60794C 2.75296 8.60794 1.82084 8.27684 1.09247 7.61421C 0.3641 6.95192 0 6.00303 0 4.76735L 0 0.950964C 0 0.42577 0.454169 0 1.01439 0C 1.57465 0 2.02882 0.42577 2.02882 0.950964L 2.02882 4.7063C 2.02882 5.38916 2.19587 5.92773 2.52961 6.32184C 2.86339 6.71625 3.31635 6.91319 3.88864 6.91319C 4.46089 6.91319 4.91616 6.71625 5.25431 6.32184C 5.5925 5.92773 5.76148 5.38916 5.76148 4.7063"/>
<path id="path8_fill" fill-rule="evenodd" d="M 4.72107 7.03523C 5.43321 7.03523 6.0526 6.84655 6.57906 6.46914C 6.95108 6.20239 7.47086 6.21977 7.79709 6.53478L 7.83747 6.5738C 8.20588 6.92951 8.17101 7.50638 7.76112 7.81961C 6.89254 8.48341 5.91174 8.81528 4.81861 8.81528C 3.41831 8.81528 2.26502 8.40069 1.3592 7.57166C 0.453032 6.74251 0 5.69603 0 4.43209C 0 3.16819 0.461646 2.1136 1.38514 1.26804C 2.30857 0.42283 3.43774 0 4.7731 0C 5.94933 0 6.97444 0.331255 7.8487 0.993699C 8.24412 1.2933 8.28444 1.84647 7.94814 2.20395L 7.89191 2.26371C 7.58001 2.59532 7.04091 2.66092 6.66895 2.38907C 6.14697 2.00752 5.5454 1.81675 4.8641 1.81675C 4.1012 1.81675 3.44849 2.05042 2.90677 2.51776C 2.36484 2.98527 2.09391 3.61518 2.09391 4.40761C 2.09391 5.20007 2.34951 5.83628 2.86125 6.31584C 3.37283 6.79542 3.99287 7.03523 4.72107 7.03523"/>
<path id="path9_fill" fill-rule="evenodd" d="M 4.60409 1.64594L 4.60409 7.57163C 4.60409 8.09683 4.14992 8.5226 3.58969 8.5226C 3.02943 8.5226 2.57527 8.09683 2.57527 7.57163L 2.57527 1.64594L 0.877844 1.64594C 0.393009 1.64594 0 1.27747 0 0.822952C 0 0.368466 0.393009 0 0.877844 0L 6.30134 0C 6.78617 0 7.17918 0.368466 7.17918 0.822952C 7.17918 1.27747 6.78617 1.64594 6.30134 1.64594L 4.60409 1.64594Z"/>
<path id="path10_fill" d="M 2.21613 6.03C 2.12413 6.03 2.04813 6.002 1.98813 5.946C 1.93213 5.886 1.90413 5.81 1.90413 5.718L 1.90413 2.286L 0.704133 2.286C 0.512133 2.286 0.416133 2.2 0.416133 2.028C 0.416133 1.944 0.440133 1.88 0.488133 1.836C 0.540133 1.792 0.612133 1.77 0.704133 1.77L 3.72813 1.77C 3.82013 1.77 3.89013 1.792 3.93813 1.836C 3.99013 1.88 4.01613 1.944 4.01613 2.028C 4.01613 2.2 3.92013 2.286 3.72813 2.286L 2.52813 2.286L 2.52813 5.718C 2.52813 5.81 2.50013 5.886 2.44413 5.946C 2.38813 6.002 2.31213 6.03 2.21613 6.03ZM 8.04195 1.74C 8.12995 1.74 8.20195 1.77 8.25795 1.83C 8.31395 1.886 8.34195 1.96 8.34195 2.052L 8.34195 5.736C 8.34195 5.828 8.31595 5.9 8.26395 5.952C 8.21595 6.004 8.14795 6.03 8.05995 6.03C 7.97595 6.03 7.90995 6.004 7.86195 5.952C 7.81395 5.9 7.78995 5.828 7.78995 5.736L 7.78995 2.946L 6.61395 5.184C 6.53795 5.324 6.43995 5.394 6.31995 5.394C 6.19995 5.394 6.10195 5.324 6.02595 5.184L 4.84395 2.97L 4.84395 5.736C 4.84395 5.828 4.81995 5.9 4.77195 5.952C 4.72395 6.004 4.65595 6.03 4.56795 6.03C 4.48395 6.03 4.41595 6.004 4.36395 5.952C 4.31595 5.896 4.29195 5.824 4.29195 5.736L 4.29195 2.052C 4.29195 1.96 4.31995 1.886 4.37595 1.83C 4.43195 1.77 4.50395 1.74 4.59195 1.74C 4.71595 1.74 4.81595 1.812 4.89195 1.956L 6.32595 4.698L 7.74795 1.956C 7.82395 1.812 7.92195 1.74 8.04195 1.74Z"/>
</defs>
</svg>
